{
    "asset" : {
        "generator" : "Khronos glTF Blender I/O v1.8.19",
        "version" : "2.0"
    },
    "scene" : 0,
    "scenes" : [
        {
            "name" : "Scene",
            "nodes" : [
                0,
                1,
                2,
                3,
                4,
                5,
                6,
                7,
                8,
                9,
                10,
                11,
                12,
                13
            ]
        }
    ],
    "nodes" : [
        {
            "mesh" : 0,
            "name" : "Grille",
            "scale" : [
                6.399999618530273,
                1,
                6.699999809265137
            ],
            "translation" : [
                0.014365285634994507,
                0.004369809292256832,
                0.050138235092163086
            ]
        },
        {
            "mesh" : 1,
            "name" : "Cube",
            "rotation" : [
                0.0016943325754255056,
                -0.7071048021316528,
                -0.7071047425270081,
                -0.0016943326918408275
            ],
            "scale" : [
                1,
                0.009999999776482582,
                0.4000000059604645
            ],
            "translation" : [
                -0.748153805732727,
                0.42482468485832214,
                -0.3642866909503937
            ]
        },
        {
            "mesh" : 2,
            "name" : "Cube.001",
            "rotation" : [
                0.0016943325754255056,
                -0.7071048021316528,
                -0.7071047425270081,
                -0.0016943326918408275
            ],
            "scale" : [
                0.009999999776482582,
                0.30000001192092896,
                0.4000000059604645
            ],
            "translation" : [
                0.23883438110351562,
                0.42482492327690125,
                -0.04906591773033142
            ]
        },
        {
            "mesh" : 3,
            "name" : "Cube.003",
            "rotation" : [
                -0.7071067690849304,
                0,
                0,
                0.7071068286895752
            ],
            "scale" : [
                0.009999999776482582,
                0.30000001192092896,
                0.4000000059604645
            ],
            "translation" : [
                -0.586650013923645,
                0.40219199657440186,
                0.008606933057308197
            ]
        },
        {
            "mesh" : 4,
            "name" : "Cube.004",
            "rotation" : [
                0.4988005757331848,
                -0.49880051612854004,
                0.501196563243866,
                -0.5011966228485107
            ],
            "scale" : [
                0.009999999776482582,
                0.30000001192092896,
                0.4000000059604645
            ],
            "translation" : [
                -0.16299843788146973,
                0.8160856366157532,
                -0.05099157989025116
            ]
        },
        {
            "mesh" : 5,
            "name" : "Cube.005",
            "rotation" : [
                0.4988005757331848,
                -0.49880051612854004,
                0.501196563243866,
                -0.5011966228485107
            ],
            "scale" : [
                0.009999999776482582,
                0.30000001192092896,
                0.4000000059604645
            ],
            "translation" : [
                -0.15976232290267944,
                0.19713476300239563,
                -0.05097603052854538
            ]
        },
        {
            "mesh" : 6,
            "name" : "Cube.006",
            "rotation" : [
                0.0016943325754255056,
                -0.7071048021316528,
                -0.7071047425270081,
                -0.0016943326918408275
            ],
            "scale" : [
                0.009999999776482582,
                0.30000001192092896,
                0.4000000059604645
            ],
            "translation" : [
                -1.7335166931152344,
                0.42482492327690125,
                -0.05851761996746063
            ]
        },
        {
            "mesh" : 7,
            "name" : "Cube.007",
            "rotation" : [
                0.0016943325754255056,
                -0.7071048021316528,
                -0.7071047425270081,
                -0.0016943326918408275
            ],
            "scale" : [
                0.009999999776482582,
                0.30000001192092896,
                0.4000000059604645
            ],
            "translation" : [
                -0.54998779296875,
                0.42482492327690125,
                -0.0528460294008255
            ]
        },
        {
            "mesh" : 8,
            "name" : "Cube.009",
            "rotation" : [
                -0.003264463972300291,
                -0.7054029107093811,
                -0.003280269680544734,
                -0.7087914943695068
            ],
            "scale" : [
                0.009999999776482582,
                0.15000002086162567,
                0.4000000059604645
            ],
            "translation" : [
                -0.1553056240081787,
                0.6657987236976624,
                0.25582653284072876
            ]
        },
        {
            "mesh" : 9,
            "name" : "Cube.002",
            "rotation" : [
                -0.003264463972300291,
                -0.7054029107093811,
                -0.003280269680544734,
                -0.7087914943695068
            ],
            "scale" : [
                0.009999999776482582,
                0.15000002086162567,
                0.4000000059604645
            ],
            "translation" : [
                -0.1553056240081787,
                0.34897178411483765,
                0.25582653284072876
            ]
        },
        {
            "mesh" : 10,
            "name" : "Cube.008",
            "rotation" : [
                0.4988005757331848,
                -0.49880051612854004,
                0.501196563243866,
                -0.5011966228485107
            ],
            "scale" : [
                0.009999999776482582,
                0.30000001192092896,
                0.4000000059604645
            ],
            "translation" : [
                -0.15976232290267944,
                0.5118960738182068,
                -0.05097603052854538
            ]
        },
        {
            "mesh" : 11,
            "name" : "Cube.010",
            "rotation" : [
                0.4988005757331848,
                -0.49880051612854004,
                0.501196563243866,
                -0.5011966228485107
            ],
            "scale" : [
                0.009999999776482582,
                0.30000001192092896,
                0.4000000059604645
            ],
            "translation" : [
                -0.16299843788146973,
                0.021506935358047485,
                -0.05099157989025116
            ]
        },
        {
            "mesh" : 12,
            "name" : "Cube.011",
            "rotation" : [
                0.7106480598449707,
                -0.0026221859734505415,
                0.0026299767196178436,
                0.7035380005836487
            ],
            "translation" : [
                -0.14219483733177185,
                0.3306879699230194,
                0.2764742076396942
            ]
        },
        {
            "mesh" : 13,
            "name" : "Cube.012",
            "rotation" : [
                0.7106480598449707,
                -0.0026221859734505415,
                0.0026299767196178436,
                0.7035380005836487
            ],
            "translation" : [
                -0.14191961288452148,
                0.6573235392570496,
                0.2743108868598938
            ]
        }
    ],
    "materials" : [
        {
            "doubleSided" : true,
            "name" : "Mat\u00e9riau",
            "pbrMetallicRoughness" : {
                "baseColorFactor" : [
                    0.800000011920929,
                    0.800000011920929,
                    0.800000011920929,
                    1
                ],
                "metallicFactor" : 0,
                "roughnessFactor" : 0.5
            }
        },
        {
            "doubleSided" : true,
            "name" : "Mat\u00e9riau.002",
            "pbrMetallicRoughness" : {
                "baseColorFactor" : [
                    0.800000011920929,
                    0.800000011920929,
                    0.800000011920929,
                    1
                ],
                "metallicFactor" : 0,
                "roughnessFactor" : 0.5
            }
        }
    ],
    "meshes" : [
        {
            "name" : "Grille",
            "primitives" : [
                {
                    "attributes" : {
                        "POSITION" : 0
                    },
                    "indices" : 1,
                    "material" : 0
                }
            ]
        },
        {
            "name" : "Cube.001",
            "primitives" : [
                {
                    "attributes" : {
                        "POSITION" : 2
                    },
                    "indices" : 3
                }
            ]
        },
        {
            "name" : "Cube.002",
            "primitives" : [
                {
                    "attributes" : {
                        "POSITION" : 4
                    },
                    "indices" : 3
                }
            ]
        },
        {
            "name" : "Cube.004",
            "primitives" : [
                {
                    "attributes" : {
                        "POSITION" : 5
                    },
                    "indices" : 3
                }
            ]
        },
        {
            "name" : "Cube.006",
            "primitives" : [
                {
                    "attributes" : {
                        "POSITION" : 6
                    },
                    "indices" : 7
                }
            ]
        },
        {
            "name" : "Cube.007",
            "primitives" : [
                {
                    "attributes" : {
                        "POSITION" : 8
                    },
                    "indices" : 3
                }
            ]
        },
        {
            "name" : "Cube.008",
            "primitives" : [
                {
                    "attributes" : {
                        "POSITION" : 9
                    },
                    "indices" : 3
                }
            ]
        },
        {
            "name" : "Cube.009",
            "primitives" : [
                {
                    "attributes" : {
                        "POSITION" : 10
                    },
                    "indices" : 3
                }
            ]
        },
        {
            "name" : "Cube.011",
            "primitives" : [
                {
                    "attributes" : {
                        "POSITION" : 11
                    },
                    "indices" : 12
                }
            ]
        },
        {
            "name" : "Cube.014",
            "primitives" : [
                {
                    "attributes" : {
                        "POSITION" : 13
                    },
                    "indices" : 12
                }
            ]
        },
        {
            "name" : "Cube.015",
            "primitives" : [
                {
                    "attributes" : {
                        "POSITION" : 14
                    },
                    "indices" : 3
                }
            ]
        },
        {
            "name" : "Cube.016",
            "primitives" : [
                {
                    "attributes" : {
                        "POSITION" : 15
                    },
                    "indices" : 16,
                    "material" : 1
                }
            ]
        },
        {
            "name" : "Cube.018",
            "primitives" : [
                {
                    "attributes" : {
                        "POSITION" : 17
                    },
                    "indices" : 3
                }
            ]
        },
        {
            "name" : "Cube.020",
            "primitives" : [
                {
                    "attributes" : {
                        "POSITION" : 18
                    },
                    "indices" : 3
                }
            ]
        }
    ],
    "accessors" : [
        {
            "bufferView" : 0,
            "componentType" : 5126,
            "count" : 121,
            "max" : [
                1,
                0,
                1
            ],
            "min" : [
                -1,
                0,
                -1
            ],
            "type" : "VEC3"
        },
        {
            "bufferView" : 1,
            "componentType" : 5123,
            "count" : 600,
            "type" : "SCALAR"
        },
        {
            "bufferView" : 2,
            "componentType" : 5126,
            "count" : 8,
            "max" : [
                1,
                1,
                1
            ],
            "min" : [
                -1,
                -1,
                -1
            ],
            "type" : "VEC3"
        },
        {
            "bufferView" : 3,
            "componentType" : 5123,
            "count" : 36,
            "type" : "SCALAR"
        },
        {
            "bufferView" : 4,
            "componentType" : 5126,
            "count" : 8,
            "max" : [
                1,
                1,
                1
            ],
            "min" : [
                -1,
                -1,
                -1
            ],
            "type" : "VEC3"
        },
        {
            "bufferView" : 5,
            "componentType" : 5126,
            "count" : 8,
            "max" : [
                1,
                1,
                1
            ],
            "min" : [
                -1,
                -1,
                -1
            ],
            "type" : "VEC3"
        },
        {
            "bufferView" : 6,
            "componentType" : 5126,
            "count" : 12,
            "max" : [
                1,
                1,
                1
            ],
            "min" : [
                -1,
                -1,
                -3.9459266662597656
            ],
            "type" : "VEC3"
        },
        {
            "bufferView" : 7,
            "componentType" : 5123,
            "count" : 60,
            "type" : "SCALAR"
        },
        {
            "bufferView" : 8,
            "componentType" : 5126,
            "count" : 8,
            "max" : [
                1,
                1,
                1
            ],
            "min" : [
                -1,
                -1,
                -1
            ],
            "type" : "VEC3"
        },
        {
            "bufferView" : 9,
            "componentType" : 5126,
            "count" : 8,
            "max" : [
                1,
                1,
                1
            ],
            "min" : [
                -1,
                -1,
                -1
            ],
            "type" : "VEC3"
        },
        {
            "bufferView" : 10,
            "componentType" : 5126,
            "count" : 8,
            "max" : [
                1,
                1,
                1
            ],
            "min" : [
                -1,
                -1,
                -1
            ],
            "type" : "VEC3"
        },
        {
            "bufferView" : 11,
            "componentType" : 5126,
            "count" : 32,
            "max" : [
                1,
                1,
                1
            ],
            "min" : [
                -1.022074818611145,
                -1,
                -1
            ],
            "type" : "VEC3"
        },
        {
            "bufferView" : 12,
            "componentType" : 5123,
            "count" : 180,
            "type" : "SCALAR"
        },
        {
            "bufferView" : 13,
            "componentType" : 5126,
            "count" : 32,
            "max" : [
                1,
                1,
                1
            ],
            "min" : [
                -1.022074818611145,
                -1,
                -1
            ],
            "type" : "VEC3"
        },
        {
            "bufferView" : 14,
            "componentType" : 5126,
            "count" : 8,
            "max" : [
                1,
                1,
                1
            ],
            "min" : [
                -1,
                -1,
                -1
            ],
            "type" : "VEC3"
        },
        {
            "bufferView" : 15,
            "componentType" : 5126,
            "count" : 32,
            "max" : [
                1,
                1,
                1
            ],
            "min" : [
                -1,
                -1,
                -3.9459266662597656
            ],
            "type" : "VEC3"
        },
        {
            "bufferView" : 16,
            "componentType" : 5123,
            "count" : 180,
            "type" : "SCALAR"
        },
        {
            "bufferView" : 17,
            "componentType" : 5126,
            "count" : 8,
            "max" : [
                0.042245812714099884,
                0.010378739796578884,
                0.009503144770860672
            ],
            "min" : [
                -0.042245812714099884,
                -0.010378739796578884,
                -0.009503144770860672
            ],
            "type" : "VEC3"
        },
        {
            "bufferView" : 18,
            "componentType" : 5126,
            "count" : 8,
            "max" : [
                0.042245812714099884,
                0.010378739796578884,
                0.009503144770860672
            ],
            "min" : [
                -0.042245812714099884,
                -0.010378739796578884,
                -0.009503144770860672
            ],
            "type" : "VEC3"
        }
    ],
    "bufferViews" : [
        {
            "buffer" : 0,
            "byteLength" : 1452,
            "byteOffset" : 0
        },
        {
            "buffer" : 0,
            "byteLength" : 1200,
            "byteOffset" : 1452
        },
        {
            "buffer" : 0,
            "byteLength" : 96,
            "byteOffset" : 2652
        },
        {
            "buffer" : 0,
            "byteLength" : 72,
            "byteOffset" : 2748
        },
        {
            "buffer" : 0,
            "byteLength" : 96,
            "byteOffset" : 2820
        },
        {
            "buffer" : 0,
            "byteLength" : 96,
            "byteOffset" : 2916
        },
        {
            "buffer" : 0,
            "byteLength" : 144,
            "byteOffset" : 3012
        },
        {
            "buffer" : 0,
            "byteLength" : 120,
            "byteOffset" : 3156
        },
        {
            "buffer" : 0,
            "byteLength" : 96,
            "byteOffset" : 3276
        },
        {
            "buffer" : 0,
            "byteLength" : 96,
            "byteOffset" : 3372
        },
        {
            "buffer" : 0,
            "byteLength" : 96,
            "byteOffset" : 3468
        },
        {
            "buffer" : 0,
            "byteLength" : 384,
            "byteOffset" : 3564
        },
        {
            "buffer" : 0,
            "byteLength" : 360,
            "byteOffset" : 3948
        },
        {
            "buffer" : 0,
            "byteLength" : 384,
            "byteOffset" : 4308
        },
        {
            "buffer" : 0,
            "byteLength" : 96,
            "byteOffset" : 4692
        },
        {
            "buffer" : 0,
            "byteLength" : 384,
            "byteOffset" : 4788
        },
        {
            "buffer" : 0,
            "byteLength" : 360,
            "byteOffset" : 5172
        },
        {
            "buffer" : 0,
            "byteLength" : 96,
            "byteOffset" : 5532
        },
        {
            "buffer" : 0,
            "byteLength" : 96,
            "byteOffset" : 5628
        }
    ],
    "buffers" : [
        {
            "byteLength" : 5724,
            "uri" : "data:application/octet-stream;base64,"
        }
    ]
}
